<?xml version="1.0" encoding="UTF-8"?>
<svg fill="none" viewBox="0 0 408 296" xmlns="http://www.w3.org/2000/svg">
<rect x="2" y="2" width="404" height="292" rx="17" fill="#fff" stroke="#000" stroke-width="4"/>
<rect x="4" y="4" width="400" height="288" rx="15" fill="#D8D8D8"/>
<mask id="c" x="4" y="4" width="400" height="288" mask-type="alpha" maskUnits="userSpaceOnUse">
<rect x="4" y="4" width="400" height="288" rx="15" fill="#D8D8D8"/>
</mask>
<g mask="url(#c)">
<rect x="50" y="94.113" width="205.84" height="100.35" rx="4" fill="#fff"/>
<rect x="50" y="104.4" width="205.84" height="36.022" fill="#fff"/>
<rect x="50" y="148.15" width="205.84" height="36.022" fill="#fff"/>
<g clip-path="url(#f)">
<path d="m78 134c6.6274 0 12-5.373 12-12s-5.3726-12-12-12-12 5.373-12 12 5.3726 12 12 12z" fill="#99E9F6"/>
<path d="m81.178 124.68s0.0318 2.646 0.3813 2.905c0.2133 0.154 0.7898 0.472 1.221 0.699 0.286 0.15 0.5038 0.263 0.5038 0.263s-5.5786 4.471-9.9089-0.145l0.867-0.549s0.4675-0.491 0.4312-1.231c-0.0409-0.739-0.0409-1.942-0.0409-1.942h6.5455z" fill="#0181A1"/>
<path d="m73.734 121.07s-0.6264-1.63-0.7807-1.888c-0.1544-0.259 0.118-1.149 0-1.335s-0.1544-2.887 0.7807-3.699c0.9396-0.813 1.4843-1.035 1.4843-1.035s0.0409-0.332 0.8988-0.332c0.8624 0 0.1271-0.553 1.5297-0.331 1.4071 0.222 1.6794 0.222 1.6794 0.222l0.3132-0.036s1.1348 0.445 1.0577 0.926c-0.0772 0.481 1.1347 0 1.1347 0v0.332s1.0168 0.036 1.0168 2.591c0 2.461-0.1906 3.337-0.4675 3.477-0.2814 0.141-0.5856 0.668-0.5856 0.668s-2.7734 1.938-8.0615 0.44z" fill="#003057"/>
<path d="m74.187 127.82s1.2119 1.729 3.5768 1.729c3.3136 0 4.0217-1.57 4.0217-1.57l0.1407-0.232s6.0779 1.38 6.0779 3.504c0 9.428-20.004 9.519-20.004 0.023 0-2.324 5.4379-3.241 6.1869-3.454z" fill="#01496E"/>
<path d="m81.603 127.62c-0.0136-9e-3 -0.0318-0.022-0.0454-0.031-0.3541-0.259-0.3813-2.905-0.3813-2.905h-6.5454s0 0.767 0.0181 1.339c2.1153 2.914 5.4016 1.629 6.954 1.597z" fill="#007694"/>
<path d="m73.693 122.7s-0.0408 2.184 1.9972 3.477c2.0336 1.294 3.6404 0.223 3.6404 0.223s2.1516-1.593 2.1924-2.442c0.0409-0.849 0.3541-1.258 0.3541-1.258s0.236 0 0.3904-0.186c0.1543-0.186 0.1952-1.37 0.3132-1.702 0.118-0.331 0.1952-0.89-0.1952-0.853-0.3904 0.036-0.5856 0.667-0.5856 0.667s0.0772-1.035-0.1543-1.702c-0.236-0.667 0.1952-2.147-0.7444-2.701s-2.138-0.372-2.7099-0.186c-0.5765 0.186-1.7884 0.073-2.5328-0.186s-1.3708 0.962-1.4889 1.516c-0.118 0.554-0.5083 2.814-0.4675 3.255l0.0409 0.444s-0.2724-1.184-0.5084-1.257c-0.2361-0.073-0.6673-0.073-0.5856 0.813 0.0772 0.889 0.1725 0.199 0.5084 1.851 0.1816 0.967 0.5356 0.227 0.5356 0.227z" fill="#0181A1"/>
</g>
<path d="m90 166c0-6.627-5.3726-12-12-12s-12 5.373-12 12 5.3726 12 12 12 12-5.373 12-12z" fill="#FFDDD5"/>
<mask id="b" x="66" y="154" width="24" height="24" mask-type="alpha" maskUnits="userSpaceOnUse">
<path d="m90 166c0-6.627-5.3726-12-12-12s-12 5.373-12 12 5.3726 12 12 12 12-5.373 12-12z" fill="#FFDDD5"/>
</mask>
<g mask="url(#b)">
<path d="m81.277 172.71c-0.1938-0.131-0.3102-0.349-0.4167-0.572-0.1163-0.068-0.2229-0.14-0.3101-0.208-0.5524-0.393-0.4362-1.454-0.2568-2.234-0.2278 0.194-0.3926 0.315-0.3926 0.315s-0.4942 0.576-0.8625 0.688c-0.4604 0.136-0.9062 0.349-1.7251 0.034-0.2229-0.087-0.693-0.679-0.9062-0.872-0.189-0.175-0.3634-0.34-0.5233-0.49 0.0194 0.184 0.0097 0.32-0.0243 0.524-0.0097 0.067-0.0193 0.135-0.0339 0.208-0.0339 0.717-0.1454 1.444-0.4313 1.899-0.0872 0.141-0.2471 0.291-0.4312 0.437-0.0049 0.077-0.0049 0.155 0 0.227v0.025c0 9e-3 0 0.019 0.0048 0.029 0.0145 0.159 0.0485 0.281 0.0679 0.339 0.0048 0.014 0.0096 0.029 0.0145 0.043-0.1308-0.063-0.3586-0.169-0.63-0.295-0.5088 0.31-5.0686 0.601-5.0686 2.975h17.314c-0.8237-1.938-4.6519-2.568-5.3885-3.072z" fill="#DD2762"/>
<path d="m81.336 172.74c-0.0145-0.01-0.0339-0.019-0.0484-0.029-0.1939-0.131-0.3101-0.354-0.4216-0.577-0.1067-0.063-0.2132-0.131-0.3053-0.198-0.5524-0.393-0.436-1.454-0.2568-2.234-0.2278 0.194-0.3926 0.315-0.3926 0.315s-0.4942 0.576-0.8625 0.688c-0.4603 0.135-0.9061 0.349-1.7251 0.034-0.2229-0.088-0.6929-0.679-0.9061-0.873-0.1938-0.179-0.3731-0.344-0.5379-0.499 0.0291 0.218 0.0048 0.475-0.0484 0.742-0.0049 0.087-0.0097 0.179-0.0146 0.266 0.567 0.829 2.1564 2.549 5.5193 2.365z" fill="#BD0057"/>
<path d="m80.278 169.72c-0.1794 0.776-0.237 1.658 0.2006 2.242 0.4376 0.583 0.7216 0.733 0.7334 0.733 0.8286 0.489 1.9074 0.461 1.8638 0.432 0 0-0.0629-1.173 0.3635-1.604 0.4264-0.436 0.9981-0.804 0.9981-0.804s0.7851-0.824 0.383-0.999c-0.4023-0.174 0.2325-0.412 0.2325-0.412l-0.4459-0.324s0.6786-0.151 0.4459-0.48c-0.2325-0.325 0.6784-1.41 0.6784-1.41s0.4023-0.499-0.2761-1.648c-0.6784-1.148-0.4266-2.19-0.4266-2.19-0.3392-1.274-0.8625-3.489-2.229-4.603-0.6348-0.5-1.2211-1.629-2.2387-1.76-0.3587-0.043-1.0321 0.088-1.0321 0.088s-1.7639-0.853-2.8591-0.446c-1.0854 0.412-2.7863 1.492-4.148 3.184-1.3616 1.691-0.4894 2.321-0.4894 2.321s-0.3198 0.106-0.4458-0.524c0 0-0.3295 0.65 0 1.173 0 0-1.7202 1.89-1.2308 2.864 0.1405 0.281 0.3053 0.499 0.3053 0.499-0.3005 0.334-0.9547 1.168-0.7075 1.846 0.0969 0.262-0.0921 0.441-0.0194 0.591 0.1308 0.262 0.3586 0.456 0.6348 0.538l0.3053 0.887c0.3246 0.94 1.0079 1.706 1.8947 2.127 0.3053 0.146 1.0806 0.514 1.6718 0.795l0.6299 0.296s-0.0048-0.015-0.0145-0.044c-0.2037-0.836 0.3389-0.741 0.5623-1.411 0.2175-0.652 0.3608-1.587 0.276-2.286-0.1426-1.07 4.8437-1.665 4.3836 0.329z" fill="#6E0D33"/>
<path d="m80.671 168.68c0.0727-0.083 0.1746-0.194 0.286-0.32 0.1792-0.213 0.3828-0.475 0.5088-0.703 0.0532-0.106 0.092-0.213 0.1211-0.315 0-5e-3 0-9e-3 0.0049-0.014 0.0048-0.015 0.0048-0.025 0.0096-0.039 0.034-0.175 0.0388-0.344 0.0291-0.475-0.0096-0.097-0.0193-0.189-0.0339-0.266-0.0242-0.185 0.6106-0.034 0.7656-0.325 0.0048-0.015 0.0146-0.024 0.0194-0.039 0.0049-0.014 0.0145-0.024 0.0194-0.039 0.0048-9e-3 0.0098-0.024 0.0146-0.034 0.0048-9e-3 0.0097-0.024 0.0145-0.033 0.0048-0.01 0.0097-0.025 0.0145-0.034 0.0048-0.01 0.0098-0.025 0.0146-0.034 0.0048-0.015 0.0097-0.025 0.0145-0.039 0.0048-0.01 0.0097-0.019 0.0097-0.034 0.0048-0.015 0.0096-0.029 0.0146-0.039 0.0048-9e-3 0.0048-0.019 0.0096-0.034 0.0049-0.014 0.0097-0.029 0.0097-0.043 0.0048-0.01 0.0048-0.02 0.0097-0.029 0.0048-0.015 0.0048-0.029 0.0096-0.044 5e-3 -0.01 5e-3 -0.019 0.0098-0.029 0.0048-0.015 0.0048-0.029 0.0097-0.044 0-9e-3 0.0048-0.019 0.0048-0.034 0.0049-0.014 0.0049-0.029 0.0049-0.043 0-0.01 0.0048-0.02 0.0048-0.034 0-0.015 0.0048-0.029 0.0048-0.044 0-9e-3 5e-3 -0.019 5e-3 -0.034 0-0.014 0.0048-0.029 0.0048-0.043 0-0.01 0-0.025 0.0048-0.034v-0.039-0.034-0.039-0.038-0.039-0.039-0.039-0.034c0-0.024-0.0048-0.048-0.0096-0.077-0.0728-0.62-0.16-1.163-0.7172-0.935-0.1406 0.058-0.1794 0.193-0.2278 0.189-0.3441-0.02-0.4458-0.359-0.4506-0.81v-0.131c0-0.092 0.0096-0.184 0.0145-0.281 0.0048-0.048 0.0096-0.096 0.0096-0.145 0-0.024 0.0049-0.048 0.0049-0.073 0.0096-0.121 0.0242-0.247 0.0387-0.368 0.0679-0.669 0.126-1.299-0.1551-1.463-0.0193-0.01-0.0386-0.02-0.0629-0.029-0.2956-0.088-0.5476-0.199-0.7608-0.32-0.3683-0.209-0.6105-0.441-0.7656-0.63-0.0048-5e-3 -0.0097-0.01-0.0145-0.015-0.1018-0.126-0.1599-0.223-0.189-0.266-0.0146-5e-3 -0.0291-0.01-0.0388-0.015-0.063 0.029-0.1551 0.083-0.2811 0.155-0.2035 0.121-0.4894 0.301-0.8044 0.553-0.2083 0.164-0.4264 0.358-0.6493 0.586-0.911 0.935 0 0-1.2114 1.086-0.8965 0.804-0.5718 0.261-1.3617 0.998-0.2374 0.223-0.2762 1.071-0.3731 1.531-0.0485 0.242-0.4022-0.601-0.4216 0.116-0.0194 0.591 0.2278 0.79 0.1793 1.284-0.0969 1.018 0.6639 2.026 1.3471 2.855 0.1212 0.135 0.1745 0.387 0.1842 0.46v0.014c0.1599 0.151 0.3343 0.315 0.5233 0.49 0.2084 0.194 0.6784 0.785 0.9062 0.872 0.8189 0.315 1.2647 0.102 1.7251-0.034 0.3682-0.111 0.8625-0.688 0.8625-0.688s0.1411-0.089 0.3737-0.283c0.1163-0.508 0.2756-0.924 0.2756-0.924s0.0582-0.053 0.1308-0.13z" fill="#DD2762"/>
<path d="m74.067 172.92s1.1823 2.132 3.4453 2.132c3.174 0 3.8572-2.02 3.8572-2.02l0.1115-0.209s0.7462 0.223 1.0854 0.364c0.3392 0.14 3.518 0.993 4.0996 2.592 0 0 0.2762 6.978-8.6546 6.978-8.9307 0-8.6787-6.978-8.6787-6.978 0-2.277 4.0171-2.655 4.7343-2.859z" fill="#A0084C"/>
</g>
<rect x="101.46" y="113.41" width="103.56" height="10.292" fill="#C4C4C4"/>
<rect x="101.46" y="126.28" width="89.413" height="5.1461" fill="#C4C4C4"/>
<rect x="101.46" y="157.15" width="123.51" height="10.292" fill="#C4C4C4"/>
<rect x="101.46" y="170.02" width="92.629" height="5.1461" fill="#C4C4C4"/>
<path d="m186.37 94.112v-35.058h131.22" opacity=".44" stroke="#000"/>
<path d="m186.37 194.46v35.058h131.22" opacity=".44" stroke="#000"/>
<rect x="302.16" y="11.775" width="205.84" height="100.35" rx="4" fill="#fff"/>
<rect x="302.16" y="22.068" width="205.84" height="36.022" fill="#fff"/>
<rect x="302.16" y="65.809" width="205.84" height="36.022" fill="#fff"/>
<g clip-path="url(#e)">
<path d="m330 52c6.627 0 12-5.3726 12-12s-5.373-12-12-12-12 5.3726-12 12 5.373 12 12 12z" fill="#99E9F6"/>
<path d="m333.18 42.682s0.032 2.6464 0.381 2.9051c0.213 0.1543 0.79 0.4721 1.221 0.699 0.286 0.1498 0.504 0.2633 0.504 0.2633s-5.579 4.4711-9.909-0.1453l0.867-0.5492s0.468-0.4902 0.431-1.2301c-0.041-0.7399-0.041-1.9428-0.041-1.9428h6.546z" fill="#0181A1"/>
<path d="m325.73 39.073s-0.627-1.6295-0.781-1.8883c-0.154-0.2587 0.118-1.1484 0-1.3345s-0.154-2.8869 0.781-3.6994c0.939-0.8125 1.484-1.0349 1.484-1.0349s0.041-0.3314 0.899-0.3314c0.862 0 0.127-0.5537 1.53-0.3313 1.407 0.2224 1.679 0.2224 1.679 0.2224l0.313-0.0363s1.135 0.4448 1.058 0.926c-0.077 0.4811 1.135 0 1.135 0v0.3313s1.016 0.0363 1.016 2.5919c0 2.4602-0.19 3.3362-0.467 3.477-0.282 0.1407-0.586 0.6672-0.586 0.6672s-2.773 1.9382-8.061 0.4403z" fill="#003057"/>
<path d="m326.19 45.819s1.212 1.7294 3.577 1.7294c3.313 0 4.021-1.5705 4.021-1.5705l0.141-0.2315s6.078 1.3799 6.078 3.5042c0 9.4278-20.004 9.5186-20.004 0.0227 0-2.324 5.438-3.2409 6.187-3.4543z" fill="#01496E"/>
<path d="m333.6 45.618c-0.014-0.0091-0.032-0.0227-0.045-0.0318-0.355-0.2587-0.382-2.9051-0.382-2.9051h-6.545s0 0.7672 0.018 1.3391c2.115 2.9141 5.402 1.6295 6.954 1.5978z" fill="#007694"/>
<path d="m325.69 40.703s-0.041 2.1834 1.997 3.477c2.034 1.2937 3.64 0.2224 3.64 0.2224s2.152-1.5932 2.193-2.442 0.354-1.2574 0.354-1.2574 0.236 0 0.39-0.1861c0.155-0.1861 0.195-1.3708 0.314-1.7021 0.118-0.3314 0.195-0.8897-0.196-0.8534-0.39 0.0363-0.585 0.6673-0.585 0.6673s0.077-1.035-0.155-1.7022c-0.236-0.6673 0.196-2.147-0.744-2.7008s-2.138-0.3722-2.71-0.1861c-0.576 0.1861-1.788 0.0726-2.533-0.1861-0.744-0.2588-1.37 0.9623-1.489 1.5161-0.118 0.5537-0.508 2.8142-0.467 3.2545 0.041 0.4449 0.041 0.4449 0.041 0.4449s-0.273-1.1848-0.509-1.2574-0.667-0.0726-0.585 0.8125c0.077 0.8897 0.172 0.1997 0.508 1.852 0.182 0.9668 0.536 0.2269 0.536 0.2269z" fill="#0181A1"/>
</g>
<path d="m330.46 96.685c7.076 0 12.865-5.7893 12.865-12.865 0-7.0758-5.789-12.865-12.865-12.865s-12.865 5.7893-12.865 12.865c0 7.0759 5.789 12.865 12.865 12.865z" clip-rule="evenodd" fill="#FC4E6D" fill-rule="evenodd"/>
<path d="m328.66 93.792c0.707-0.7719 1.543-2.1871 1.157-3.4093-0.836-0.9005-0.707-2.8946-2.315-2.7016-0.644 0-2.123 0.9005-2.187-1.0936-0.065-0.2573-0.837-0.1286-0.451-0.9649-0.257-0.1929-0.257-0.3216-0.321-0.5146 0-0.1929 0.257-0.2573 0.45-0.5789-0.901-0.3216-0.965-0.9006-0.836-1.0935 0.193-0.3217 1.029-0.2573 1.286-1.3509 0.129-0.5789-0.321-1.3508-0.321-1.9941 0-1.1578 0.965-3.2806 2.766-4.0525 1.415-0.6433 2.83-0.5789 4.309-0.4503 0.579-2.7017 5.404-1.4152 5.404 1.2865 0.321 2.1228-0.901 2.1228-1.287 2.4444 0.065 0.0643 0.065 0.1287 0.065 0.193 1.543 5.2104-6.883 4.6958 0.772 11.45 0.128 0.1286 0 0.2573-0.129 0.193-5.017-1.8012-5.146 4.0525-8.362 2.6373z" fill="#6E0D33"/>
<rect x="353.62" y="31.072" width="108.71" height="10.292" fill="#C4C4C4"/>
<rect x="353.62" y="43.938" width="89.413" height="5.1461" fill="#C4C4C4"/>
<rect x="353.62" y="74.814" width="108.71" height="10.292" fill="#C4C4C4"/>
<rect x="353.62" y="87.682" width="92.629" height="5.1461" fill="#C4C4C4"/>
<rect x="302.16" y="173.88" width="205.84" height="100.35" rx="4" fill="#fff"/>
<rect x="302.16" y="184.17" width="205.84" height="36.022" fill="#fff"/>
<rect x="302.16" y="227.91" width="205.84" height="36.022" fill="#fff"/>
<g clip-path="url(#d)">
<path d="m330 214c6.627 0 12-5.373 12-12s-5.373-12-12-12-12 5.373-12 12 5.373 12 12 12z" fill="#99E9F6"/>
<path d="m333.18 204.68s0.032 2.646 0.381 2.905c0.213 0.154 0.79 0.472 1.221 0.699 0.286 0.15 0.504 0.263 0.504 0.263s-5.579 4.471-9.909-0.145l0.867-0.549s0.468-0.491 0.431-1.231c-0.041-0.739-0.041-1.942-0.041-1.942h6.546z" fill="#0181A1"/>
<path d="m325.73 201.07s-0.627-1.63-0.781-1.888c-0.154-0.259 0.118-1.149 0-1.335s-0.154-2.887 0.781-3.699c0.939-0.813 1.484-1.035 1.484-1.035s0.041-0.332 0.899-0.332c0.862 0 0.127-0.553 1.53-0.331 1.407 0.222 1.679 0.222 1.679 0.222l0.313-0.036s1.135 0.445 1.058 0.926 1.135 0 1.135 0v0.332s1.016 0.036 1.016 2.591c0 2.461-0.19 3.337-0.467 3.477-0.282 0.141-0.586 0.668-0.586 0.668s-2.773 1.938-8.061 0.44z" fill="#003057"/>
<path d="m326.19 207.82s1.212 1.729 3.577 1.729c3.313 0 4.021-1.57 4.021-1.57l0.141-0.232s6.078 1.38 6.078 3.504c0 9.428-20.004 9.519-20.004 0.023 0-2.324 5.438-3.241 6.187-3.454z" fill="#01496E"/>
<path d="m333.6 207.62c-0.014-9e-3 -0.032-0.022-0.045-0.031-0.355-0.259-0.382-2.905-0.382-2.905h-6.545s0 0.767 0.018 1.339c2.115 2.914 5.402 1.629 6.954 1.597z" fill="#007694"/>
<path d="m325.69 202.7s-0.041 2.184 1.997 3.477c2.034 1.294 3.64 0.223 3.64 0.223s2.152-1.593 2.193-2.442 0.354-1.258 0.354-1.258 0.236 0 0.39-0.186c0.155-0.186 0.195-1.37 0.314-1.702 0.118-0.331 0.195-0.89-0.196-0.853-0.39 0.036-0.585 0.667-0.585 0.667s0.077-1.035-0.155-1.702c-0.236-0.667 0.196-2.147-0.744-2.701s-2.138-0.372-2.71-0.186c-0.576 0.186-1.788 0.073-2.533-0.186-0.744-0.259-1.37 0.962-1.489 1.516-0.118 0.554-0.508 2.814-0.467 3.255 0.041 0.444 0.041 0.444 0.041 0.444s-0.273-1.184-0.509-1.257-0.667-0.073-0.585 0.813c0.077 0.889 0.172 0.199 0.508 1.851 0.182 0.967 0.536 0.227 0.536 0.227z" fill="#0181A1"/>
</g>
<path d="m342 246c0-6.627-5.373-12-12-12s-12 5.373-12 12 5.373 12 12 12 12-5.373 12-12z" fill="#FFDDD5"/>
<mask id="a" x="318" y="234" width="24" height="24" mask-type="alpha" maskUnits="userSpaceOnUse">
<path d="m342 246c0-6.627-5.373-12-12-12s-12 5.373-12 12 5.373 12 12 12 12-5.373 12-12z" fill="#FFDDD5"/>
</mask>
<g mask="url(#a)">
<path d="m333.28 252.71c-0.194-0.131-0.31-0.349-0.417-0.572-0.116-0.068-0.223-0.14-0.31-0.208-0.552-0.393-0.436-1.454-0.257-2.234-0.227 0.194-0.392 0.315-0.392 0.315s-0.494 0.576-0.863 0.688c-0.46 0.136-0.906 0.349-1.725 0.034-0.223-0.087-0.693-0.679-0.906-0.872-0.189-0.175-0.363-0.34-0.523-0.49 0.019 0.184 9e-3 0.32-0.025 0.524-9e-3 0.067-0.019 0.135-0.033 0.208-0.034 0.717-0.146 1.444-0.432 1.899-0.087 0.141-0.247 0.291-0.431 0.437-5e-3 0.077-5e-3 0.155 0 0.227v0.025c0 9e-3 0 0.019 5e-3 0.029 0.014 0.159 0.048 0.281 0.068 0.339 4e-3 0.014 9e-3 0.029 0.014 0.043-0.131-0.063-0.358-0.169-0.63-0.295-0.509 0.31-5.068 0.601-5.068 2.975h17.313c-0.823-1.938-4.651-2.568-5.388-3.072z" fill="#DD2762"/>
<path d="m333.34 252.74c-0.015-0.01-0.034-0.019-0.049-0.029-0.194-0.131-0.31-0.354-0.421-0.577-0.107-0.063-0.214-0.131-0.306-0.198-0.552-0.393-0.436-1.454-0.256-2.234-0.228 0.194-0.393 0.315-0.393 0.315s-0.494 0.576-0.862 0.688c-0.461 0.135-0.907 0.349-1.726 0.034-0.222-0.088-0.692-0.679-0.906-0.873-0.194-0.179-0.373-0.344-0.538-0.499 0.029 0.218 5e-3 0.475-0.048 0.742-5e-3 0.087-0.01 0.179-0.015 0.266 0.567 0.829 2.157 2.549 5.52 2.365z" fill="#BD0057"/>
<path d="m332.28 249.72c-0.18 0.776-0.237 1.658 0.2 2.242 0.438 0.583 0.722 0.733 0.734 0.733 0.828 0.489 1.907 0.461 1.863 0.432 0 0-0.063-1.173 0.364-1.604 0.426-0.436 0.998-0.804 0.998-0.804s0.785-0.824 0.383-0.999c-0.402-0.174 0.232-0.412 0.232-0.412l-0.445-0.324s0.678-0.151 0.445-0.48c-0.232-0.325 0.679-1.41 0.679-1.41s0.402-0.499-0.276-1.648c-0.679-1.148-0.427-2.19-0.427-2.19-0.339-1.274-0.862-3.489-2.229-4.603-0.635-0.5-1.221-1.629-2.239-1.76-0.358-0.043-1.032 0.088-1.032 0.088s-1.764-0.853-2.859-0.446c-1.085 0.412-2.786 1.492-4.148 3.184-1.361 1.691-0.489 2.321-0.489 2.321s-0.32 0.106-0.446-0.524c0 0-0.329 0.65 0 1.173 0 0-1.72 1.89-1.231 2.864 0.141 0.281 0.306 0.499 0.306 0.499-0.301 0.334-0.955 1.168-0.708 1.846 0.097 0.262-0.092 0.441-0.019 0.591 0.131 0.262 0.358 0.456 0.634 0.538l0.306 0.887c0.324 0.94 1.008 1.706 1.894 2.127 0.306 0.146 1.081 0.514 1.672 0.795l0.63 0.296s-5e-3 -0.015-0.014-0.044c-0.204-0.836 0.339-0.741 0.562-1.411 0.218-0.652 0.361-1.587 0.276-2.286-0.143-1.07 4.844-1.665 4.384 0.329z" fill="#6E0D33"/>
<path d="m332.67 248.68c0.073-0.083 0.175-0.194 0.286-0.32 0.179-0.213 0.383-0.475 0.509-0.703 0.053-0.106 0.092-0.213 0.121-0.315 0-5e-3 0-9e-3 5e-3 -0.014 5e-3 -0.015 5e-3 -0.025 9e-3 -0.039 0.034-0.175 0.039-0.344 0.029-0.475-9e-3 -0.097-0.019-0.189-0.033-0.266-0.025-0.185 0.61-0.034 0.765-0.325 5e-3 -0.015 0.015-0.024 0.02-0.039 4e-3 -0.014 0.014-0.024 0.019-0.039 5e-3 -9e-3 0.01-0.024 0.015-0.034 4e-3 -9e-3 9e-3 -0.024 0.014-0.033 5e-3 -0.01 0.01-0.025 0.015-0.034 4e-3 -0.01 9e-3 -0.025 0.014-0.034 5e-3 -0.015 0.01-0.025 0.015-0.039 4e-3 -0.01 9e-3 -0.019 9e-3 -0.034 5e-3 -0.015 0.01-0.029 0.015-0.039 5e-3 -9e-3 5e-3 -0.019 0.01-0.034 4e-3 -0.014 9e-3 -0.029 9e-3 -0.043 5e-3 -0.01 5e-3 -0.02 0.01-0.029 5e-3 -0.015 5e-3 -0.029 0.01-0.044 5e-3 -0.01 5e-3 -0.019 9e-3 -0.029 5e-3 -0.015 5e-3 -0.029 0.01-0.044 0-9e-3 5e-3 -0.019 5e-3 -0.034 5e-3 -0.014 5e-3 -0.029 5e-3 -0.043 0-0.01 5e-3 -0.02 5e-3 -0.034 0-0.015 4e-3 -0.029 4e-3 -0.044 0-9e-3 5e-3 -0.019 5e-3 -0.034 0-0.014 5e-3 -0.029 5e-3 -0.043 0-0.01 0-0.025 5e-3 -0.034v-0.039-0.034-0.039-0.038-0.039-0.039-0.039-0.034c0-0.024-5e-3 -0.048-0.01-0.077-0.072-0.62-0.16-1.163-0.717-0.935-0.14 0.058-0.179 0.193-0.228 0.189-0.344-0.02-0.445-0.359-0.45-0.81v-0.131c0-0.092 9e-3 -0.184 0.014-0.281 5e-3 -0.048 0.01-0.096 0.01-0.145 0-0.024 5e-3 -0.048 5e-3 -0.073 9e-3 -0.121 0.024-0.247 0.038-0.368 0.068-0.669 0.126-1.299-0.155-1.463-0.019-0.01-0.038-0.02-0.063-0.029-0.295-0.088-0.547-0.199-0.76-0.32-0.369-0.209-0.611-0.441-0.766-0.63-5e-3 -5e-3 -0.01-0.01-0.014-0.015-0.102-0.126-0.16-0.223-0.189-0.266-0.015-5e-3 -0.03-0.01-0.039-0.015-0.063 0.029-0.155 0.083-0.281 0.155-0.204 0.121-0.49 0.301-0.805 0.553-0.208 0.164-0.426 0.358-0.649 0.586-0.911 0.935 0 0-1.211 1.086-0.897 0.804-0.572 0.261-1.362 0.998-0.238 0.223-0.276 1.071-0.373 1.531-0.049 0.242-0.402-0.601-0.422 0.116-0.019 0.591 0.228 0.79 0.179 1.284-0.096 1.018 0.664 2.026 1.348 2.855 0.121 0.135 0.174 0.387 0.184 0.46v0.014c0.16 0.151 0.334 0.315 0.523 0.49 0.208 0.194 0.678 0.785 0.906 0.872 0.819 0.315 1.265 0.102 1.725-0.034 0.369-0.111 0.863-0.688 0.863-0.688s0.141-0.089 0.374-0.283c0.116-0.508 0.275-0.924 0.275-0.924s0.058-0.053 0.131-0.13z" fill="#DD2762"/>
<path d="m326.07 252.92s1.182 2.132 3.445 2.132c3.174 0 3.858-2.02 3.858-2.02l0.111-0.209s0.746 0.223 1.086 0.364c0.339 0.14 3.518 0.993 4.099 2.592 0 0 0.276 6.978-8.654 6.978-8.931 0-8.679-6.978-8.679-6.978 0-2.277 4.017-2.655 4.734-2.859z" fill="#A0084C"/>
</g>
<rect x="353.62" y="193.17" width="117.72" height="10.292" fill="#C4C4C4"/>
<rect x="353.62" y="206.04" width="89.413" height="5.1461" fill="#C4C4C4"/>
<rect x="353.62" y="236.92" width="103.56" height="10.292" fill="#C4C4C4"/>
<rect x="353.62" y="249.78" width="92.629" height="5.1461" fill="#C4C4C4"/>
</g>
<defs>
<clipPath id="f">
<path d="m66 122c0-6.627 5.3726-12 12-12s12 5.373 12 12-5.3726 12-12 12-12-5.373-12-12z" fill="#fff"/>
</clipPath>
<clipPath id="e">
<path d="m318 40c0-6.6274 5.373-12 12-12s12 5.3726 12 12-5.373 12-12 12-12-5.3726-12-12z" fill="#fff"/>
</clipPath>
<clipPath id="d">
<path d="m318 202c0-6.627 5.373-12 12-12s12 5.373 12 12-5.373 12-12 12-12-5.373-12-12z" fill="#fff"/>
</clipPath>
</defs>
</svg>
