<svg width="408" height="296" viewBox="0 0 408 296" fill="none" xmlns="http://www.w3.org/2000/svg">
<rect x="2" y="2" width="404" height="292" rx="17" fill="white" stroke="black" stroke-width="4"/>
<rect x="4" y="4" width="400" height="288" rx="15" fill="#545452"/>
<rect x="67" y="27" width="274" height="243" rx="4" fill="white"/>
<circle cx="90" cy="164" r="4.5" fill="white" stroke="#212225"/>
<circle cx="90" cy="200" r="4.5" fill="white" stroke="#212225"/>
<circle cx="173" cy="200" r="4.5" fill="white" stroke="#212225"/>
<circle cx="159" cy="164" r="4.5" fill="white" stroke="#212225"/>
<circle cx="235" cy="164" r="4.5" fill="white" stroke="#212225"/>
<rect x="83" y="35" width="61" height="9" fill="#C4C4C4"/>
<rect x="83" y="46" width="82" height="8" fill="#C4C4C4"/>
<rect x="83" y="146" width="58" height="8" fill="#C4C4C4"/>
<rect x="97" y="160" width="44" height="8" fill="#C4C4C4"/>
<rect x="97" y="196" width="47" height="8" fill="#C4C4C4"/>
<rect x="180" y="196" width="49" height="8" fill="#C4C4C4"/>
<rect x="166" y="160" width="49" height="8" fill="#C4C4C4"/>
<rect x="242" y="160" width="54" height="8" fill="#C4C4C4"/>
<rect x="83" y="182" width="64" height="8" fill="#C4C4C4"/>
<rect x="83" y="71" width="73" height="8" fill="#C4C4C4"/>
<rect x="83" y="92" width="51" height="10" fill="#C4C4C4"/>
<rect x="168" y="71" width="73" height="8" fill="#C4C4C4"/>
<rect x="83.5" y="107.5" width="27" height="15" rx="3.5" fill="white" stroke="#A9ADAD"/>
<rect x="83.5" y="217.5" width="98" height="15" rx="3.5" fill="white" stroke="#A9ADAD"/>
<rect x="83.5" y="246.5" width="98" height="15" rx="3.5" fill="white" stroke="#A9ADAD"/>
<rect x="190.5" y="217.5" width="128" height="15" rx="3.5" fill="white" stroke="#A9ADAD"/>
<rect x="190.5" y="246.5" width="128" height="15" rx="3.5" fill="white" stroke="#A9ADAD"/>
<rect x="207.5" y="107.5" width="83" height="15" rx="3.5" fill="white" stroke="#A9ADAD"/>
<rect x="117.5" y="107.5" width="83" height="15" rx="3.5" fill="white" stroke="#A9ADAD"/>
<rect x="297.5" y="107.5" width="27" height="15" rx="3.5" fill="white" stroke="#A9ADAD"/>
</svg>
